<svg width="60" height="61" viewBox="0 0 60 61" fill="none" xmlns="http://www.w3.org/2000/svg">
<g clip-path="url(#clip0_1_8035)">
<path d="M16.6319 17.2194C18.3673 15.4844 20.3883 14.1217 22.6401 13.1691C24.9733 12.1826 27.4493 11.6823 30 11.6823C32.5507 11.6823 35.0267 12.1826 37.3599 13.1691C39.6117 14.1217 41.6332 15.4844 43.3681 17.2194C44.1179 17.9692 44.7981 18.773 45.4056 19.6254V17.5979C45.4056 11.0968 40.1166 5.80777 33.6154 5.80777H18.9899V0.617188L0 12.5827L13.6102 21.1584C14.4356 19.7238 15.4468 18.4045 16.6319 17.2194Z" fill="#3D3AD3"/>
<path d="M60.0001 48.5921L46.3898 40.0164C45.5645 41.451 44.5533 42.7698 43.3681 43.9554C41.6328 45.6903 39.6117 47.0531 37.36 48.0052C35.0268 48.9922 32.5507 49.4925 30.0001 49.4925C27.4494 49.4925 24.9734 48.9922 22.6401 48.0052C20.3884 47.0531 18.3669 45.6903 16.632 43.9554C15.8822 43.2056 15.2019 42.4018 14.5945 41.5494V43.5768C14.5945 50.078 19.8835 55.367 26.3846 55.367H41.0107V60.5576L60.0001 48.5921Z" fill="#3D3AD3"/>
<path d="M14.614 30.5875C14.614 39.085 21.5024 45.9739 29.9999 45.9739C38.4978 45.9739 45.3863 39.085 45.3863 30.5875C45.3863 22.0901 38.4978 15.2012 29.9999 15.2012C21.5024 15.2012 14.614 22.0901 14.614 30.5875ZM24.1419 28.0868C24.1419 25.9128 25.7194 24.085 28.8747 23.6428V21.5458H31.587V23.6043C33.0106 23.7389 34.3958 24.1042 35.4922 24.7199L34.1262 28.0094C32.7991 27.336 31.5485 27.0092 30.3748 27.0092C29.0478 27.0092 28.6243 27.3937 28.6243 27.8556C28.6243 29.4715 36.0694 28.1248 36.0694 33.0883C36.0694 35.1661 34.5688 36.9742 31.587 37.4938V39.6293H28.8747V37.5899C26.9507 37.4746 25.0849 36.955 23.9304 36.2432L25.3925 32.9345C26.6624 33.6848 28.3552 34.1659 29.8365 34.1659C31.1251 34.1659 31.587 33.8962 31.587 33.4348C31.587 31.7415 24.1419 33.1075 24.1419 28.0868Z" fill="#3D3AD3"/>
</g>
<defs>
<clipPath id="clip0_1_8035">
<rect width="60" height="60" fill="white" transform="translate(0 0.5)"/>
</clipPath>
</defs>
</svg>
