<svg width="60" height="61" viewBox="0 0 60 61" fill="none" xmlns="http://www.w3.org/2000/svg">
<g clip-path="url(#clip0_1_8026)">
<path d="M30 0.5C13.4321 0.5 0 13.9321 0 30.5C0 47.0679 13.4321 60.5 30 60.5C46.5679 60.5 60 47.0679 60 30.5C60 13.9321 46.5679 0.5 30 0.5ZM38.6173 42.3272C37.3086 43.9198 35.6049 44.9938 33.6173 45.537C32.7531 45.7716 32.358 46.2284 32.4074 47.1296C32.4444 48.0185 32.4074 48.8951 32.3951 49.784C32.3951 50.5741 31.9877 50.9938 31.2099 51.0185C30.7037 51.0309 30.1975 51.0432 29.6914 51.0432C29.2469 51.0432 28.8025 51.0432 28.358 51.0309C27.5185 51.0185 27.1235 50.537 27.1235 49.7222C27.1111 49.0802 27.1111 48.4259 27.1111 47.784C27.0988 46.3519 27.0494 46.3025 25.679 46.0802C23.9259 45.7963 22.1975 45.4012 20.5926 44.6235C19.3333 44.0062 19.1975 43.6975 19.5556 42.3642C19.8272 41.3765 20.0988 40.3889 20.4074 39.4136C20.6296 38.6975 20.8395 38.3765 21.2222 38.3765C21.4444 38.3765 21.7284 38.4877 22.1111 38.6852C23.8889 39.6111 25.7778 40.1296 27.7654 40.3765C28.0988 40.4136 28.4321 40.4383 28.7654 40.4383C29.6914 40.4383 30.5926 40.2654 31.4691 39.8827C33.679 38.9198 34.0247 36.3642 32.1605 34.8333C31.5309 34.3148 30.8025 33.9321 30.0494 33.5988C28.1111 32.7469 26.0988 32.1049 24.2716 31.0062C21.3086 29.2284 19.4321 26.7963 19.6543 23.1914C19.9012 19.1173 22.2099 16.5741 25.9506 15.216C27.4938 14.6605 27.5062 14.6728 27.5062 13.0679C27.5062 12.5247 27.4938 11.9815 27.5185 11.4259C27.5556 10.216 27.7531 10.0062 28.963 9.96914C29.0988 9.96914 29.2469 9.96914 29.3827 9.96914C29.6173 9.96914 29.8519 9.96914 30.0864 9.96914C30.1852 9.96914 30.284 9.96914 30.3704 9.96914C32.6667 9.96914 32.6667 10.0679 32.679 12.5494C32.6914 14.3765 32.6914 14.3765 34.5062 14.6605C35.9012 14.8827 37.2222 15.2901 38.5062 15.858C39.2099 16.1667 39.4815 16.6605 39.2593 17.4136C38.9383 18.5247 38.6296 19.6481 38.284 20.7469C38.0617 21.4136 37.8519 21.7222 37.4568 21.7222C37.2346 21.7222 36.963 21.6358 36.6173 21.463C34.8395 20.5988 32.9753 20.179 31.0247 20.179C30.7778 20.179 30.5185 20.1914 30.2716 20.2037C29.6914 20.2407 29.1235 20.3148 28.5802 20.5494C26.6543 21.3889 26.3457 23.5123 27.9877 24.821C28.8148 25.4877 29.7654 25.9568 30.7407 26.3642C32.4444 27.0679 34.1482 27.7469 35.7654 28.6358C40.8519 31.4753 42.2346 37.9321 38.6173 42.3272Z" fill="#3D3AD3"/>
</g>
<defs>
<clipPath id="clip0_1_8026">
<rect width="60" height="60" fill="white" transform="translate(0 0.5)"/>
</clipPath>
</defs>
</svg>
