<svg width="60" height="61" viewBox="0 0 60 61" fill="none" xmlns="http://www.w3.org/2000/svg">
<g clip-path="url(#clip0_1_8043)">
<path d="M40.5894 28.8594C31.866 28.8594 24.769 35.9564 24.769 44.6797C24.769 53.403 31.866 60.5 40.5894 60.5C49.3127 60.5 56.4097 53.403 56.4097 44.6797C56.4097 35.9564 49.3127 28.8594 40.5894 28.8594ZM42.9331 45.1484C42.9331 46.1192 42.1461 46.9062 41.1753 46.9062H35.8594C34.8887 46.9062 34.1016 46.1192 34.1016 45.1484C34.1016 44.1777 34.8887 43.3906 35.8594 43.3906H39.4175V39.8002C39.4175 38.8295 40.2045 38.0424 41.1753 38.0424C42.1461 38.0424 42.9331 38.8295 42.9331 39.8002V45.1484Z" fill="#3D3AD3"/>
<path d="M21.5484 48.0559C21.2191 48.116 21.6613 48.0754 12.4102 48.0875C11.4387 48.0875 10.6523 47.3 10.6523 46.3297C10.6523 45.3594 11.4387 44.5719 12.4102 44.5719C21.8033 44.5719 21.2298 44.5711 21.2531 44.573C21.2602 43.3754 21.375 42.2035 21.5918 41.068H12.416C11.4445 41.068 10.6582 40.2805 10.6582 39.3102C10.6582 38.3398 11.4445 37.5523 12.416 37.5523H22.616C25.4849 30.3395 32.5277 25.3196 40.6521 25.3445V7.47102C40.6521 4.79715 41.6586 2.35426 43.3119 0.5H12.3082C7.46367 0.5 3.52148 4.44219 3.52148 9.28672V58.7105C3.52148 60.2919 5.4559 61.0687 6.54961 59.9258L8.79844 57.5773L11.1738 59.9539C11.8594 60.6395 12.9727 60.6395 13.6594 59.9539L15.9105 57.7039L18.184 59.9586C18.8695 60.6383 19.9746 60.6383 20.6602 59.9586L22.9699 57.6688L25.2809 59.9586C25.9652 60.6383 27.0691 60.6383 27.7547 59.9598L28.2023 59.5168C24.7781 56.6527 22.357 52.6297 21.5484 48.0559ZM18.0762 21.7016C18.6082 20.8895 19.6969 20.6621 20.5102 21.193C21.3867 21.7672 22.8457 21.9781 23.5711 21.6359C24.0809 21.3969 24.4594 20.8988 24.5156 20.3973C24.634 19.3471 23.2194 18.8243 22.2504 18.4426C21.034 17.9621 19.5199 17.3633 18.6562 15.8059C17.4259 13.5816 18.5216 10.5978 21.0773 9.63594V9.37344C21.0773 8.40313 21.8648 7.61563 22.8352 7.61563C23.8066 7.61563 24.593 8.40313 24.593 9.37344V9.51875C25.3418 9.72852 26.0344 10.0871 26.5805 10.591C27.2941 11.2496 27.3398 12.3617 26.6812 13.0754C26.0227 13.7891 24.9105 13.8336 24.1969 13.175C23.7961 12.8047 22.6535 12.6641 22.1191 13.0227C21.743 13.2758 21.559 13.7891 21.7324 14.102C22.2247 14.9929 24.4083 15.1828 26.0988 16.5008C29.394 19.0689 28.2082 23.7511 24.593 25.0086V25.3672C24.593 26.3375 23.8066 27.125 22.8352 27.125C21.8648 27.125 21.0773 26.3375 21.0773 25.3672V25.1434C20.141 24.943 19.268 24.582 18.5848 24.1355C17.7727 23.6035 17.5453 22.5148 18.0762 21.7016ZM12.4219 30.5094H21.2109C22.1812 30.5094 22.9688 31.2969 22.9688 32.2672C22.9688 33.2375 22.1812 34.025 21.2109 34.025H12.4219C11.4504 34.025 10.6641 33.2375 10.6641 32.2672C10.6641 31.2969 11.4504 30.5094 12.4219 30.5094Z" fill="#3D3AD3"/>
<path d="M50.2646 0.5C46.8328 0.5 44.0508 3.28203 44.0508 6.71387V25.2547H54.7207C55.6915 25.2547 56.4785 24.4677 56.4785 23.4969V6.71387C56.4785 3.28203 53.6965 0.5 50.2646 0.5Z" fill="#3D3AD3"/>
</g>
<defs>
<clipPath id="clip0_1_8043">
<rect width="60" height="60" fill="white" transform="translate(0 0.5)"/>
</clipPath>
</defs>
</svg>
