<svg width="16" height="16" viewBox="0 0 16 16" fill="none" xmlns="http://www.w3.org/2000/svg">
<g clip-path="url(#clip0_1_8055)">
<path d="M9.5 0H1.83333C0.82 0 0 0.82 0 1.83333V12.1667C0 13.18 0.82 14 1.83333 14H6.75333L6.9 13.18C6.96667 12.8067 7.14 12.4733 7.40667 12.2L11.3333 8.28V1.83333C11.3333 0.82 10.5133 0 9.5 0ZM2.66667 2.66667H5.33333C5.7 2.66667 6 2.96667 6 3.33333C6 3.7 5.7 4 5.33333 4H2.66667C2.3 4 2 3.7 2 3.33333C2 2.96667 2.3 2.66667 2.66667 2.66667ZM6 9.33333H2.66667C2.3 9.33333 2 9.03333 2 8.66667C2 8.3 2.3 8 2.66667 8H6C6.36667 8 6.66667 8.3 6.66667 8.66667C6.66667 9.03333 6.36667 9.33333 6 9.33333ZM8.66667 6.66667H2.66667C2.3 6.66667 2 6.36667 2 6C2 5.63333 2.3 5.33333 2.66667 5.33333H8.66667C9.03333 5.33333 9.33333 5.63333 9.33333 6C9.33333 6.36667 9.03333 6.66667 8.66667 6.66667Z" fill="#3D3AD3"/>
<path d="M8.35204 16.0001C8.2207 16.0001 8.0927 15.9481 7.9987 15.8534C7.88337 15.7381 7.83137 15.5741 7.86004 15.4128L8.21337 13.4094C8.2307 13.3088 8.28004 13.2154 8.35204 13.1428L13.302 8.19342C13.91 7.58409 14.5074 7.74875 14.834 8.07542L15.6587 8.90009C16.114 9.35475 16.114 10.0948 15.6587 10.5501L10.7087 15.5001C10.6367 15.5728 10.5434 15.6214 10.442 15.6388L8.4387 15.9921C8.41004 15.9974 8.3807 16.0001 8.35204 16.0001Z" fill="#3D3AD3"/>
</g>
<defs>
<clipPath id="clip0_1_8055">
<rect width="16" height="16" fill="white"/>
</clipPath>
</defs>
</svg>
