<svg width="60" height="61" viewBox="0 0 60 61" fill="none" xmlns="http://www.w3.org/2000/svg">
<path fill-rule="evenodd" clip-rule="evenodd" d="M33.75 4.25562H15C11.8931 4.25562 9.375 6.77374 9.375 9.88061V48.02C9.375 50.1837 10.6163 52.1562 12.5681 53.0918C14.52 54.0275 16.8338 53.7612 18.5213 52.4056L19.4512 51.6594C20.1375 51.11 21.1125 51.11 21.7988 51.6594L26.4825 55.4206C28.5375 57.0706 31.4606 57.0725 33.5194 55.4262L38.2069 51.6762C38.8912 51.1287 39.8625 51.1269 40.5469 51.6744L41.5181 52.4487C43.2075 53.7968 45.5194 54.0575 47.4675 53.12C49.4137 52.1825 50.6513 50.2118 50.6513 48.0518V21.125H39.375C37.8825 21.125 36.4519 20.5325 35.3981 19.4769C34.3425 18.4231 33.75 16.9925 33.75 15.5V4.25562ZM35.1394 44.8869L40.7006 39.3256C41.2369 38.7894 41.3981 37.9831 41.1075 37.2819C40.8169 36.5825 40.1325 36.125 39.375 36.125H20.625C19.59 36.125 18.75 36.965 18.75 38C18.75 39.035 19.59 39.875 20.625 39.875H34.8487L32.4881 42.2356C31.755 42.9669 31.755 44.1556 32.4881 44.8869C33.2194 45.62 34.4081 45.62 35.1394 44.8869ZM24.8606 23.6131L19.2994 29.1744C18.7631 29.7106 18.6019 30.5168 18.8925 31.2181C19.1831 31.9175 19.8675 32.375 20.625 32.375H39.375C40.41 32.375 41.25 31.535 41.25 30.5C41.25 29.465 40.41 28.625 39.375 28.625H25.1513L27.5119 26.2643C28.245 25.5331 28.245 24.3443 27.5119 23.6131C26.7806 22.88 25.5919 22.88 24.8606 23.6131ZM37.5 4.48061V15.5C37.5 15.9969 37.6969 16.475 38.0494 16.8256C38.4 17.1781 38.8781 17.375 39.375 17.375H50.4319C50.1694 16.4637 49.6781 15.6256 48.9938 14.9469L39.8925 5.89249C39.2194 5.22312 38.3944 4.74123 37.5 4.48061Z" fill="#3D3AD3"/>
</svg>
