<svg width="36" height="36" viewBox="0 0 36 36" fill="none" xmlns="http://www.w3.org/2000/svg">
<rect width="36" height="36" rx="18" fill="white"/>
<path d="M17.9997 11.3335C18.8837 11.3335 19.7316 11.6847 20.3567 12.3098C20.9818 12.9349 21.333 13.7828 21.333 14.6668C21.333 15.5509 20.9818 16.3987 20.3567 17.0239C19.7316 17.649 18.8837 18.0002 17.9997 18.0002C17.1156 18.0002 16.2678 17.649 15.6427 17.0239C15.0175 16.3987 14.6663 15.5509 14.6663 14.6668C14.6663 13.7828 15.0175 12.9349 15.6427 12.3098C16.2678 11.6847 17.1156 11.3335 17.9997 11.3335ZM17.9997 19.6668C21.683 19.6668 24.6663 21.1585 24.6663 23.0002V24.6668H11.333V23.0002C11.333 21.1585 14.3163 19.6668 17.9997 19.6668Z" fill="#737373"/>
</svg>
