<svg width="24" height="24" viewBox="0 0 24 24" fill="none" xmlns="http://www.w3.org/2000/svg">
<g clip-path="url(#clip0_1_8007)">
<path d="M19.3493 10.04C19.0134 8.33772 18.0969 6.80486 16.7563 5.70325C15.4158 4.60163 13.7344 3.99961 11.9993 4C9.10927 4 6.59927 5.64 5.34927 8.04C3.8795 8.19883 2.52027 8.89521 1.53276 9.99532C0.545239 11.0954 -0.000904124 12.5217 -0.000732381 14C-0.000732381 17.31 2.68927 20 5.99927 20H18.9993C21.7593 20 23.9993 17.76 23.9993 15C23.9993 12.36 21.9493 10.22 19.3493 10.04ZM16.9993 13L11.9993 18L6.99927 13H9.99927V9H13.9993V13H16.9993Z" fill="white"/>
</g>
<defs>
<clipPath id="clip0_1_8007">
<rect width="24" height="24" fill="white"/>
</clipPath>
</defs>
</svg>
