<svg width="24" height="24" viewBox="0 0 24 24" fill="none" xmlns="http://www.w3.org/2000/svg">
<path fill-rule="evenodd" clip-rule="evenodd" d="M12.0003 2C11.735 2 11.4807 2.10536 11.2931 2.29289C11.1056 2.48043 11.0003 2.73478 11.0003 3C11.0003 3.26522 11.1056 3.51957 11.2931 3.70711C11.4807 3.89464 11.735 4 12.0003 4C13.7618 4.00035 15.4739 4.58207 16.871 5.65489C18.2681 6.72772 19.2721 8.23167 19.7271 9.93338C20.1822 11.6351 20.0629 13.4394 19.3877 15.0664C18.7125 16.6933 17.5192 18.052 15.993 18.9315C14.4668 19.811 12.6929 20.1622 10.9467 19.9305C9.20052 19.6989 7.57958 18.8974 6.33542 17.6504C5.09126 16.4035 4.29345 14.7807 4.06578 13.034C3.83811 11.2873 4.1933 9.51423 5.07626 7.99L6.29326 9.207C6.43311 9.34681 6.61127 9.44202 6.80522 9.48058C6.99918 9.51915 7.20021 9.49935 7.38291 9.42368C7.56561 9.34801 7.72177 9.21987 7.83166 9.05546C7.94154 8.89105 8.00021 8.69775 8.00026 8.5V4.5C8.00026 4.23478 7.8949 3.98043 7.70736 3.79289C7.51983 3.60536 7.26547 3.5 7.00026 3.5H3.00026C2.80251 3.50004 2.60921 3.55871 2.4448 3.6686C2.28039 3.77848 2.15225 3.93465 2.07658 4.11735C2.00091 4.30005 1.9811 4.50108 2.01967 4.69503C2.05824 4.88898 2.15345 5.06715 2.29326 5.207L3.62326 6.537C2.56144 8.16093 1.99732 10.0597 2.00026 12C2.00026 17.523 6.47726 22 12.0003 22C17.5233 22 22.0003 17.523 22.0003 12C22.0003 6.477 17.5233 2 12.0003 2Z" fill="white"/>
</svg>
