<svg width="20" height="20" viewBox="0 0 20 20" fill="none" xmlns="http://www.w3.org/2000/svg">
<path d="M9.9999 10.625H9.9124C8.4874 10.4375 6.7749 9.775 6.7749 7.65C6.7749 6.375 7.6249 5 9.9874 5C12.3499 5 13.1249 6.7 13.1999 7.6C13.2249 7.95 12.9749 8.25 12.6249 8.275C12.4616 8.28634 12.3002 8.23416 12.1744 8.12935C12.0486 8.02453 11.9682 7.87519 11.9499 7.7125C11.9249 7.475 11.7124 6.2625 9.9749 6.2625C8.6749 6.2625 8.0124 6.7375 8.0124 7.6625C8.0124 8.1375 8.0124 9.1375 10.0624 9.4C10.2182 9.42417 10.3591 9.50596 10.4575 9.62916C10.5558 9.75236 10.6042 9.90799 10.5932 10.0652C10.5822 10.2224 10.5125 10.3698 10.398 10.4781C10.2835 10.5864 10.1325 10.6478 9.9749 10.65L9.9999 10.625Z" fill="#3D3AD3"/>
<path d="M10.0001 15.0001C7.62511 15.0001 6.86261 13.3001 6.78761 12.4001C6.76261 12.0501 7.01261 11.7501 7.36261 11.7251C7.70011 11.7001 8.00011 11.9501 8.03761 12.2876C8.06261 12.5251 8.27511 13.7376 10.0126 13.7376C11.3126 13.7376 11.9751 13.2626 11.9751 12.3376C11.9751 11.8626 11.9751 10.8626 9.92511 10.6001C9.76154 10.5774 9.61348 10.4912 9.51291 10.3602C9.41233 10.2293 9.36733 10.064 9.38761 9.90008C9.43761 9.56258 9.75011 9.31258 10.0876 9.36258C11.5126 9.55008 13.2251 10.2126 13.2251 12.3376C13.2251 13.6126 12.3751 14.9876 10.0126 14.9876L10.0001 15.0001Z" fill="#3D3AD3"/>
<path d="M10 18.75C5.175 18.75 1.25 14.825 1.25 10C1.25 5.175 5.175 1.25 10 1.25C14.825 1.25 18.75 5.175 18.75 10C18.75 14.825 14.825 18.75 10 18.75ZM10 2.5C5.8625 2.5 2.5 5.8625 2.5 10C2.5 14.1375 5.8625 17.5 10 17.5C14.1375 17.5 17.5 14.1375 17.5 10C17.5 5.8625 14.1375 2.5 10 2.5Z" fill="#3D3AD3"/>
<path d="M10 16.25C9.65 16.25 9.375 15.975 9.375 15.625V4.375C9.375 4.025 9.65 3.75 10 3.75C10.35 3.75 10.625 4.025 10.625 4.375V15.625C10.625 15.975 10.35 16.25 10 16.25Z" fill="#3D3AD3"/>
</svg>
